# Alias OBJ Model File
# Exported from SketchUp, (c) 2000-2012 Trimble Navigation Limited
# File units = meters

mtllib Olimpia_dach_dach.mtl

g Mesh1 Model

usemtl Regal_Blue_PBR_Panel
v 26.7978 13.2937 -3.66913
vt 15.2114 29.5049
vn -0.0148879 0.999889 -0
v 26.7978 13.2937 -3.181
vt 15.7452 29.5049
v 26.927 13.2956 -3.181
vt 15.7452 29.6463
v 26.927 13.2956 -3.66913
vt 15.2114 29.6463
f 1/1/1 2/2/1 3/3/1 4/4/1 

g Mesh2 Model

usemtl Marble_01_1K
v -3.82338 14.56 -0.638958
vt -1.27446 0.212986
vn -3.44842e-17 1 -4.42603e-15
v 23.0694 14.56 -0.638958
vt 7.68981 0.212986
v 23.0694 14.56 -1.71956
vt 7.68981 0.573186
v -3.82338 14.56 -1.71956
vt -1.27446 0.573186
f 5/5/2 6/6/2 7/7/2 8/8/2 

g Mesh3 Model

usemtl Metal_10_1K
v 26.7754 13.299 12.4761
vt -12.4761 13.299
vn 1 -1.42699e-15 -4.94679e-15
v 26.7754 16.3338 4.3592
vt -4.3592 16.3338
v 26.7754 17.0585 4.63017
vt -4.63017 17.0585
v 26.7754 13.3945 14.43
vt -14.43 13.3945
v 26.7754 13.299 14.3943
vt -14.3943 13.299
f 9/9/3 10/10/3 11/11/3 12/12/3 13/13/3 

usemtl Roofing_02_1K
vt -87.8459 5.37094
vn -3.06903e-15 -0.936672 -0.350207
vt -87.8459 -23.0599
v -9.06589 13.299 12.4761
vt 29.7437 -23.0599
v -9.06589 16.3338 4.3592
vt 29.7437 5.37094
f 10/14/4 9/15/4 14/16/4 15/17/4 

vt 14.3019 53.5885
vn -1 1.42699e-15 4.94679e-15
vt 40.9322 43.6318
v -9.06589 13.299 14.3943
vt 47.2255 43.6318
v -9.06589 13.3945 14.43
vt 47.3427 43.9451
v -9.06589 17.0585 4.63017
vt 15.1908 55.9662
f 15/18/5 14/19/5 16/20/5 17/21/5 18/22/5 

vt -29.7437 57.4074
vn 2.82153e-17 -0.350207 0.936672
vt 87.8459 57.4074
vt 87.8459 57.7419
vt -29.7437 57.7419
f 16/23/6 13/24/6 12/25/6 17/26/6 

vt 87.8459 -28.9547
vn 3.06903e-15 0.936672 0.350207
vt 87.8459 5.37094
vt -29.7437 5.37094
vt -29.7437 -28.9547
f 12/27/7 11/28/7 18/29/7 17/30/7 

usemtl Regal_Blue_7_8__Corrugated
vt -39.5302 25.9835
vn -4.13377e-15 0.350207 -0.936672
vt -39.5302 24.8412
vt 13.3845 24.8412
vt 13.3845 25.9835
f 11/31/8 10/32/8 15/33/8 18/34/8 

g Mesh4 Model

usemtl Metal_10_1K
v 26.7803 13.2972 14.3917
vt -14.3917 13.2972
vn 1 -1.9821e-15 1.13438e-14
v 26.7803 12.9014 15.4504
vt -15.4504 12.9014
v 26.7803 12.2721 15.2151
vt -15.2151 12.2721
v 26.7803 12.58 14.3917
vt -14.3917 12.58
f 19/35/9 20/36/9 21/37/9 22/38/9 

usemtl Roofing_02_1K
vt 87.8617 -32.6567
vn -2.11611e-15 0.936672 0.350207
vt 87.8617 -28.9484
v -9.09932 13.2972 14.3917
vt -29.8534 -28.9484
v -9.09932 12.9014 15.4504
vt -29.8534 -32.6567
f 20/39/10 19/40/10 23/41/10 24/42/10 

usemtl Regal_Blue_7_8__Corrugated
vt -39.5373 19.6314
vn 1.13438e-14 0 -1
vt -39.5373 18.5726
v -9.09932 12.58 14.3917
vt 13.4339 18.5726
vt 13.4339 19.6314
f 19/43/11 22/44/11 25/45/11 23/46/11 

usemtl Roofing_02_1K
vt -87.8617 -29.7725
vn 2.11611e-15 -0.936672 -0.350207
vt -87.8617 -32.6567
v -9.09932 12.2721 15.2151
vt 29.8534 -32.6567
vt 29.8534 -29.7725
f 22/47/12 21/48/12 26/49/12 25/50/12 

vt 87.8617 55.1949
vn -1.13196e-14 -0.350207 0.936672
vt 87.8617 57.3989
vt -29.8534 57.3989
vt -29.8534 55.1949
f 21/51/13 20/52/13 24/53/13 26/54/13 

vt 50.6902 42.3273
vn -1 1.9821e-15 -1.13438e-14
vt 47.2167 43.626
vt 47.2167 41.273
vt 49.9183 40.2629
f 24/55/14 23/56/14 25/57/14 26/58/14 

g Mesh5 Model

usemtl Marble_01_1K
v 12.299 14.5236 9.98574
vt 4.20732 -3.18282
vn -5.87721e-05 0.999998 0.00177953
v -5.48992 14.5225 9.98574
vt -1.7191 -3.37855
v 23.1665 14.5225 10.9322
vt 7.83824 -3.37855
f 27/59/15 28/60/15 29/61/15

g Mesh6 Model

usemtl Roofing_02_1K
v -9.06924 16.3355 4.94119
vt -29.7547 33.9536
vn 3.20896e-14 -0.936672 0.350207
v -9.06924 12.2756 -5.9174
vt -29.7547 -4.08026
v 26.7836 12.2756 -5.9174
vt 87.8728 -4.08026
v 26.7836 12.5835 -5.09395
vt 87.8728 -1.19599
v 25.3954 12.5835 -5.09395
vt 83.3182 -1.19599
v 25.3954 13.3007 -3.17575
vt 83.3182 5.5228
v 26.7718 13.3007 -3.17575
vt 87.8339 5.5228
v 26.7718 16.3355 4.94119
vt 87.8339 33.9536
f 30/62/16 31/63/16 32/64/16 33/65/16 34/66/16 35/67/16 36/68/16 37/69/16 

vt -19.4141 40.2742
vn -1 0 -0
vt 16.2112 53.594
v -9.06924 17.0401 4.67771
vt 15.3468 55.906
v -9.06924 12.9803 -6.18088
vt -20.2785 42.5862
f 31/70/17 30/71/17 38/72/17 39/73/17 

usemtl Regal_Blue_7_8__Corrugated
vt -13.3895 20.035
vn 0 0.350207 0.936672
vt 39.5248 20.035
v 26.7718 17.0401 4.67771
vt 39.5248 21.1457
vt -13.3895 21.1457
f 30/74/18 37/75/18 40/76/18 38/77/18 

usemtl Metal_10_1K
vt -4.94119 16.3355
vn 1 6.65062e-16 1.94327e-16
vt 3.17575 13.3007
v 26.7718 13.3007 -5.09395
vt 5.09395 13.3007
v 26.7718 13.3761 -5.12217
vt 5.12217 13.3761
vt -4.67771 17.0401
f 37/78/19 36/79/19 41/80/19 42/81/19 40/82/19 

usemtl Regal_Blue_7_8__Corrugated
v 25.3954 13.3007 -5.09395
vt 37.4927 7.5205
vn 0 1 -0
vt 37.4927 4.68855
vt 39.5248 4.68855
vt 39.5248 7.5205
f 43/83/20 35/84/20 36/85/20 41/86/20 

vt 7.5205 18.5777
vn 1 0 -0
vt 7.5205 19.6365
vt 4.68855 19.6365
f 34/87/21 43/88/21 35/89/21

vt -37.4927 18.5777
vn -1.22744e-14 1.00659e-15 -1
vt -37.4927 19.6365
vt -39.5248 19.6365
v 26.7836 13.3007 -5.09395
vt -39.5423 19.6365
vt -39.5423 18.5777
f 34/90/22 43/91/22 41/92/22 44/93/22 33/94/22 

usemtl Roofing_02_1K
vt 87.8339 46.7267
vn 1.08359e-12 0.350207 0.936672
vt 87.8728 46.7267
v 26.7836 13.3761 -5.12217
vt 87.8728 46.991
vt 87.8339 46.991
f 41/95/23 44/96/23 45/97/23 42/98/23 

usemtl Metal_10_1K
vt 5.9174 12.2756
vn 1 1.21889e-29 -1.22744e-14
v 26.7836 12.9803 -6.18088
vt 6.18088 12.9803
vt 5.09395 12.5835
f 32/99/24 46/100/24 45/81/24 44/80/24 33/101/24 

usemtl Roofing_02_1K
vt -87.8728 44.5227
vn 2.03287e-15 -0.350207 -0.936672
vt 29.7547 44.5227
vt 29.7547 46.991
vt -87.8728 46.991
f 32/102/25 31/103/25 39/104/25 46/105/25 

vt -87.8339 -0.371962
vn -1.8549e-14 0.936672 -0.350207
vt -87.8728 -0.371962
vt -87.8728 -4.08026
vt 29.7547 -4.08026
vt 29.7547 33.9536
vt -87.8339 33.9536
f 42/106/26 45/107/26 46/108/26 39/109/26 38/110/26 40/111/26 

g Mesh7 Model

usemtl Regal_Blue_7_8__Corrugated
v 26.3119 13.3055 -3.05874
vt -38.8458 19.6437
vn 3.40168e-16 -2.58534e-17 -1
v 25.3941 13.3055 -3.05874
vt -37.4909 19.6437
v 25.3941 13.9992 -3.05874
vt -37.4909 20.6678
v 26.3119 13.9992 -3.05874
vt -38.8458 20.6678
f 47/112/27 48/113/27 49/114/27 50/115/27 

