# Alias OBJ Model File
# Exported from SketchUp, (c) 2000-2012 Trimble Navigation Limited
# File units = meters

mtllib Olimpia_floor.mtl

g Mesh1 Model

usemtl Marble_01_1K
v 26.7355 -3.96818e-16 2.46156
vt -8.91183 7.45983e-16
vn 5.84356e-17 1.07036e-15 -1
v 26.7316 0 2.46156
vt -8.91054 8.78256e-16
v 26.7316 0.271857 2.46156
vt -8.91054 0.0906191
v 26.7316 0.273693 2.46156
vt -8.91054 0.0912311
v 39.9297 0.273693 2.46156
vt -13.3099 0.0912311
v 39.9297 -1.6243e-15 2.46156
vt -13.3099 3.36822e-16
v 39.6977 -1.98772e-15 2.46156
vt -13.2326 2.15682e-16
v 34.9009 -4.35452e-16 2.46156
vt -11.6336 7.33105e-16
v 33.591 -1.68027e-15 2.46156
vt -11.197 3.18167e-16
v 26.7357 -1.80521e-16 2.46156
vt -8.91191 8.18082e-16
f 1/1/1 2/2/1 3/3/1 4/4/1 5/5/1 6/6/1 7/7/1 8/8/1 9/9/1 10/10/1 

vt 8.91054 -0.820521
vn 9.85622e-14 1 -1.03416e-16
vt 8.91183 -0.820521
vt 8.91191 -0.820521
v 26.7357 -6.12948e-16 2.91271
vt 8.91191 -0.970905
v 26.7355 -3.96818e-16 2.46156
v 26.7316 -7.96371e-16 -4.95739
vt 8.91054 1.65246
f 2/11/2 1/12/2 10/13/2 11/14/2 12/12/2 13/15/2 

vt -8.91054 -0.820521
vn -9.52159e-14 -1 4.84829e-17
vt -8.91183 -0.820521
vt -8.91191 -0.970905
v 26.7357 -1.80652e-16 6.14864
vt -8.91191 -2.04955
v 26.7316 0 6.14864
vt -8.91054 -2.04955
f 2/16/3 1/17/3 11/18/3 14/19/3 15/20/3 

vt -8.91191 -0.820521
vn 9.17132e-13 -1 -9.58496e-16
f 10/21/4 11/18/4 1/17/4

vn -2.3977e-16 -1 -5.17035e-16
vt -11.197 -0.820521
v 33.591 -2.0578e-15 2.91271
vt -11.197 -0.970905
v 26.7425 0 2.91271
vt -8.91416 -0.970905
f 10/21/5 9/22/5 16/23/5 17/24/5 11/18/5 

vn 1.01622e-15 -1 -6.4528e-16
vt -11.6336 -0.820521
v 34.9009 -6.40157e-16 2.91271
vt -11.6336 -0.970905
f 9/22/6 8/25/6 18/26/6 16/23/6 

v 37.8114 -7.43648e-15 2.91271
vt -12.6038 -0.970905
vn -5.73419e-16 -1 -7.71516e-15
vt -13.2326 -0.820521
v 39.6977 -2.35154e-15 2.78026
vt -13.2326 -0.926754
v 37.8114 -7.36734e-15 2.78026
vt -12.6038 -0.926754
f 19/27/7 18/26/7 8/25/7 7/28/7 20/29/7 21/30/7 

v 37.8114 -7.00296e-15 3.30897
vt -12.6038 -1.10299
vn -2.29031e-15 -1 7.64935e-16
v 34.9009 -4.67456e-16 3.30897
vt -11.6336 -1.10299
f 22/31/8 23/32/8 18/26/8 19/27/8 

v 37.8114 -7.00161e-15 6.14864
vt -12.6038 -2.04955
vn -2.27981e-15 -1 -3.47341e-17
v 34.9009 -4.76623e-16 6.14864
vt -11.6336 -2.04955
v 37.8114 -7.36202e-15 6.00856
vt -12.6038 -2.00285
f 24/33/9 25/34/9 23/32/9 22/31/9 26/35/9 

v 37.8114 -7.36202e-15 6.53271
vt -12.6038 -2.17757
vn -2.2984e-15 -1 -6.62791e-16
v 34.9009 -6.34266e-16 6.53271
vt -11.6336 -2.17757
v 37.8114 -7.36202e-15 6.32706
vt -12.6038 -2.10902
f 27/36/10 28/37/10 25/34/10 24/33/10 29/38/10 

vn -3.14254e-16 -1 5.71742e-15
v 39.6977 -2.34621e-15 6.32706
vt -13.2326 -2.10902
v 39.6977 -1.42921e-15 6.99524
vt -13.2326 -2.33175
v 34.9009 -2.11687e-16 6.99524
vt -11.6336 -2.33175
f 28/37/11 27/36/11 29/38/11 30/39/11 31/40/11 32/41/11 

vt 12.6038 -6.84542e-16
vn -9.26151e-17 -8.12587e-16 1
v 37.8114 0.477915 6.53271
vt 12.6038 0.159305
v 26.7316 0.477915 6.53271
vt 8.91054 0.159305
v 26.7316 0.287401 6.53271
vt 8.91054 0.0958003
v 26.7316 0.273693 6.53271
vt 8.91054 0.0912311
v 26.7316 0.271857 6.53271
vt 8.91054 0.0906191
v 26.7316 -7.21911e-16 6.53271
vt 8.91054 1.52883e-15
v 26.7357 -5.41244e-16 6.53271
vt 8.91191 1.58905e-15
v 33.591 -2.10299e-15 6.53271
vt 11.197 1.06847e-15
vt 11.6336 1.55804e-15
f 27/42/12 33/43/12 34/44/12 35/45/12 36/46/12 37/47/12 38/48/12 39/49/12 40/50/12 28/51/12 

vt -2.10902 -2.45401e-15
vn 1 0 -0
vt -2.04955 -2.33387e-15
vt -2.00285 -2.45401e-15
vt -1.10299 -2.33432e-15
vt -0.970905 -2.47883e-15
v 37.8114 0.477915 2.91271
vt -0.970905 0.159305
vt -2.17757 0.159305
vt -2.17757 -2.45401e-15
f 29/52/13 24/53/13 26/54/13 22/55/13 19/56/13 41/57/13 33/58/13 27/59/13 

vn 1.24913e-15 -1 1.33818e-16
v 39.9297 -1.76975e-15 6.14864
vt -13.3099 -2.04955
v 39.9297 -1.98526e-15 6.00856
vt -13.3099 -2.00285
v 39.9297 -1.68424e-15 3.30897
vt -13.3099 -1.10299
vt -13.3099 -0.820521
v 39.9297 -1.68424e-15 3.30897
v 43.0333 -1.6243e-15 3.30897
vt -14.3444 -1.10299
v 43.0333 -1.6243e-15 6.14864
vt -14.3444 -2.04955
v 39.9297 -1.76975e-15 6.14864
v 39.9297 -1.05599e-15 6.99524
vt -13.3099 -2.33175
f 29/38/14 24/33/14 42/60/14 43/61/14 44/62/14 22/31/14 19/27/14 21/30/14 20/29/14 7/28/14 6/63/14 45/62/14 46/64/14 47/65/14 48/60/14 49/66/14 31/40/14 30/39/14 

vn 2.50408e-15 -1 2.05552e-15
f 26/35/15 43/61/15 42/60/15 24/33/15 

vn 2.52458e-15 -1 -1.22254e-16
f 22/31/16 44/62/16 43/61/16 26/35/16 

v 33.591 -1.82138e-15 3.30897
vt -11.197 2.37484e-17
vn 5.9653e-17 5.71969e-16 -1
v 26.7425 0 3.30897
vt -8.91416 6.30875e-16
v 26.7425 0.477915 3.30897
vt -8.91416 0.159305
v 26.7316 0.477915 3.30897
vt -8.91054 0.159305
v 26.7316 0.776444 3.30897
vt -8.91054 0.258815
v 34.9757 0.776444 3.30897
vt -11.6586 0.258815
vt -14.3444 8.94418e-17
vt -13.3099 6.94617e-17
vt -12.6038 -1.70345e-15
vt -11.6336 4.75057e-16
f 50/67/17 51/68/17 52/69/17 53/70/17 54/71/17 55/72/17 46/73/17 44/74/17 22/75/17 23/76/17 

vt -8.91416 -1.10299
vn -2.83215e-16 -1 2.98316e-16
vt -11.197 -1.10299
f 51/77/18 17/24/18 16/23/18 50/78/18 

vn 6.24097e-14 -1 6.09996e-17
v 26.7425 0 6.14864
vt -8.91416 -2.04955
f 14/19/19 11/18/19 17/24/19 51/77/19 56/79/19 

vt -1.10299 0.159305
vt -1.10299 0
vt -0.970905 0
v 26.7425 0.477915 2.91271
f 52/80/13 51/81/13 17/82/13 57/57/13 

vt -2.04955 0
v 26.7425 0.477915 6.14864
vt -2.04955 0.159305
f 56/83/13 51/81/13 52/80/13 58/84/13 

vn -2.67877e-16 -1 -4.63782e-18
v 33.591 -1.84772e-15 6.14864
vt -11.197 -2.04955
f 56/79/20 51/77/20 50/78/20 59/85/20 

vn 1.0401e-15 -1 -6.25195e-18
f 50/78/21 23/32/21 25/34/21 59/85/21 

vn 1.05786e-15 -1 5.16233e-16
f 16/23/22 18/26/22 23/32/22 50/78/22 

vt -11.197 -1.7652e-16
vn 6.37395e-17 5.24679e-16 -1
vt -8.91416 5.09413e-16
vt -12.6038 0.159305
vt -12.6038 -1.96941e-15
vt -11.6336 2.96027e-16
f 16/86/23 17/87/23 57/69/23 41/88/23 19/89/23 18/90/23 

vt 12.6038 -0.970905
vn 6.76414e-16 1 1.04295e-18
vt 8.91416 -0.970905
vt 8.91416 -1.10299
vt 8.91416 -2.04955
v 26.7316 0.477915 6.14864
vt 8.91054 -2.04955
vt 8.91054 -2.17757
vt 12.6038 -2.17757
f 41/91/24 57/92/24 52/93/24 58/94/24 60/95/24 34/96/24 33/97/24 

vt 8.91054 -1.10299
vn 0 1 -0
v 26.7316 0.477915 -4.95739
f 53/98/25 52/93/25 57/92/25 61/15/25 

f 53/98/25 60/95/25 58/94/25 52/93/25 

v 26.7316 0.477915 17.9965
vt 8.91054 -5.99882
v 26.7316 0.477915 17.5018
vt 8.91054 -5.83394
v 26.7316 0.477915 -7.90733
vt 8.91054 2.63578
v 26.7316 0.477915 -8.37773
vt 8.91054 2.79258
v -35.591 0.477915 -8.37773
vt -11.8637 2.79258
v -35.591 0.477915 17.9965
vt -11.8637 -5.99882
f 62/99/25 63/100/25 34/96/25 60/95/25 53/98/25 61/15/25 64/101/25 65/102/25 66/103/25 67/104/25 

v 26.7316 0.287401 17.9965
vt -5.99882 0.0958003
v 26.7316 0.287401 17.5018
vt -5.83394 0.0958003
vt -5.83394 0.159305
vt -5.99882 0.159305
f 68/105/13 69/106/13 63/107/13 62/108/13 

v 26.7316 0.273693 17.9965
vt -5.99882 0.0912311
v 26.7316 0.273693 17.5018
vt -5.83394 0.0912311
f 70/109/13 71/110/13 69/106/13 68/105/13 

vt 5.99882 0.0912311
vn -1 0 -0
vt 5.83394 0.0912311
v 26.7316 0.271857 17.5018
vt 5.83394 0.0906191
v 26.7316 0.271857 17.9965
vt 5.99882 0.0906191
f 70/111/26 71/112/26 72/113/26 73/114/26 

v 26.7316 0.273693 6.99524
vt 2.33175 0.0912311
v 26.7316 0.271857 6.99524
vt 2.33175 0.0906191
f 71/112/26 74/115/26 75/116/26 72/113/26 

vt -2.17757 0.0958003
vt -2.33175 0.0912311
vt -2.17757 0.0912311
f 35/117/13 69/106/13 71/110/13 74/118/13 36/119/13 

f 69/106/13 35/117/13 34/58/13 63/107/13 

v 26.7316 0.287401 6.14864
vt -2.04955 0.0958003
f 35/117/13 76/120/13 60/84/13 34/58/13 

v 26.7316 0.273693 6.14864
vt -2.04955 0.0912311
f 36/119/13 77/121/13 76/120/13 35/117/13 

vt 8.91054 -2.33175
vn 1.201e-16 1 -1.21427e-17
v 39.9297 0.273693 6.99524
vt 13.3099 -2.33175
vt 13.3099 -0.820521
f 74/122/27 78/123/27 5/124/27 4/11/27 77/95/27 36/96/27 

vt 13.3099 -2.0938e-15
vn -1.12423e-16 7.46993e-16 1
vt 13.3099 0.0912311
v 26.7316 5.68309e-16 6.99524
vt 8.91054 -1.55236e-15
v 26.7357 2.4563e-16 6.99524
vt 8.91191 -1.65992e-15
v 33.591 -1.1808e-15 6.99524
vt 11.197 -2.1354e-15
vt 11.6336 -1.81236e-15
vt 13.2326 -2.2182e-15
f 49/125/28 78/126/28 74/46/28 75/47/28 79/127/28 80/128/28 81/129/28 32/130/28 31/131/28 

vt -0.820521 0.0912311
vt -2.33175 -3.51997e-16
vt -2.04955 -5.89916e-16
vt -2.00285 -6.61752e-16
vt -1.10299 -5.61414e-16
vt -0.820521 -5.41434e-16
f 5/132/13 78/118/13 49/133/13 42/134/13 43/135/13 44/136/13 6/137/13 

vn 5.56961e-17 -1 -3.73264e-17
f 46/64/29 47/65/29 42/60/29 43/61/29 44/62/29 

vt -2.04955 -14.2783
vn 0.0959175 0.995389 -0
vt -1.10299 -14.2783
vt -1.10299 -11.58
v 34.9757 0.776444 6.14864
vt -2.04955 -11.58
f 47/138/30 46/139/30 55/140/30 82/141/30 

vt 11.6586 -1.10299
vn 1.82741e-07 1 -6.97328e-07
v 26.7316 0.776453 5.97285
vt 8.91054 -1.99095
v 26.7316 0.776444 5.97336
vt 8.91054 -1.99112
v 26.7316 0.776444 6.14864
vt 11.6586 -2.04955
f 55/142/31 54/98/31 83/143/31 84/144/31 85/95/31 82/145/31 

v -35.1806 0.776457 -7.90733
vt -11.7269 2.63578
vn 1.45796e-07 1 -2.46347e-07
v -35.1806 0.776457 17.5018
vt -11.7269 -5.83394
v 26.7316 0.776457 17.5018
v 26.7316 0.776444 -7.90733
f 86/146/32 87/147/32 88/100/32 85/95/32 84/144/32 83/143/32 54/98/32 89/101/32 

v -35.1806 8.02304e-16 -7.90733
vt -2.63578 2.67435e-16
vn -1 0 1.85569e-15
v -35.1806 1.44749e-15 17.5018
vt 5.83394 4.82498e-16
vt 5.83394 0.258819
vt -2.63578 0.258819
f 90/148/33 91/149/33 87/150/33 86/151/33 

v 26.7316 -5.25944e-16 -8.37773
vt -8.91054 2.79258
vn -3.44584e-18 -1 1.4516e-17
v 26.7316 8.02304e-16 -7.90733
vt -8.91054 2.63578
vt 11.7269 2.63578
vt 11.7269 -5.83394
v 26.7316 1.44749e-15 17.5018
vt -8.91054 -5.83394
v 26.7316 0 17.9965
vt -8.91054 -5.99882
v -35.591 0 17.9965
vt 11.8637 -5.99882
v -35.591 2.70427e-16 -8.37773
vt 11.8637 2.79258
f 92/152/34 93/153/34 90/154/34 91/155/34 94/156/34 95/157/34 96/158/34 97/159/34 

v 26.7316 0.271857 -8.37773
vt 2.79258 0.0906191
v 26.7316 0.271857 -7.90733
vt 2.63578 0.0906191
vt 2.63578 2.67435e-16
vt 2.79258 -1.75315e-16
f 98/160/13 99/161/13 93/162/13 92/163/13 

vt -2.79258 0.0906191
vt -2.63578 0.0906191
v 26.7316 0.273693 -7.90733
vt -2.63578 0.0912311
v 26.7316 0.273693 -8.37773
vt -2.79258 0.0912311
f 98/164/26 99/165/26 100/166/26 101/167/26 

v -35.9434 0.271857 18.3627
vt -11.9811 -6.12091
vn 2.31156e-19 1 -1.6704e-18
v 26.7316 0.271857 18.3627
vt 8.91054 -6.12091
v 26.7316 0.271857 6.14864
v 26.7316 0.271857 -8.76348
vt 8.91054 2.92116
v -35.9434 0.271857 -8.76348
vt -11.9811 2.92116
f 102/168/35 103/169/35 73/99/35 72/100/35 75/122/35 37/96/35 104/95/35 3/11/35 99/101/35 98/102/35 105/170/35 106/171/35 

v -35.9434 0 18.3627
vt -11.9811 0
vn 0 0 1
v 26.7316 0 18.3627
vt 8.91054 0
vt -11.9811 0.0906191
f 107/172/36 108/173/36 103/47/36 102/174/36 

v 26.7316 0 -8.76348
vt -8.91054 2.92116
vn -2.55633e-18 -1 6.86231e-18
vt -8.91054 -6.12091
vt 11.9811 -6.12091
v -35.9434 0 -8.76348
vt 11.9811 2.92116
f 109/175/37 92/152/37 97/159/37 96/158/37 95/157/37 108/176/37 107/177/37 110/178/37 

vt 2.92116 0.0906191
vt 2.92116 0
f 105/179/13 98/160/13 92/163/13 109/180/13 

vt 11.8637 0.159305
vn -1.02328e-16 7.90644e-17 -1
v 26.7316 0.287401 -8.37773
vt -8.91054 0.0958003
vt -8.91054 -3.96108e-16
vt 11.8637 -1.30651e-16
f 66/181/38 65/70/38 111/182/38 101/4/38 98/3/38 92/183/38 97/184/38 

vt -2.79258 0.0958003
v 26.7316 0.287401 -7.90733
vt -2.63578 0.0958003
vt -2.63578 0.159305
vt -2.79258 0.159305
f 111/185/26 112/186/26 64/187/26 65/188/26 

f 101/167/26 100/166/26 112/186/26 111/185/26 

vt -8.91054 8.7038e-17
vn -2.57021e-17 6.84415e-17 -1
vt 11.7269 8.7038e-17
vt 11.7269 0.258819
f 93/189/39 90/190/39 86/191/39 89/71/39 64/70/39 112/182/39 100/4/39 99/3/39 

vn -3.46197e-17 -1 -4.56617e-17
vt -8.91054 1.65246
vt -8.91054 -2.17757
vt -8.91054 -2.33175
f 91/155/40 90/154/40 93/153/40 13/192/40 2/16/40 15/20/40 38/193/40 79/194/40 94/156/40 

vt 1.65246 -2.65457e-16
vt -0.820521 0.0906191
vt -0.820521 0
f 13/195/13 93/162/13 99/161/13 3/196/13 2/197/13 

vt 0.820521 0.0906191
vt 0.820521 0.0912311
f 99/165/26 3/198/26 4/199/26 100/166/26 

vt -2.04955 0.0906191
f 4/132/13 77/121/13 104/200/13 3/196/13 

vt 2.63578 0.0958003
vt 2.63578 0.0912311
f 112/201/13 76/120/13 77/121/13 4/132/13 100/202/13 

vt 2.63578 0.159305
vt 1.65246 0.159305
f 53/80/13 60/84/13 76/120/13 112/201/13 64/203/13 61/204/13 

vn 1 -3.90033e-15 -1.05755e-16
vt -1.10299 0.258815
vt -1.99095 0.258818
vt -1.99112 0.258815
v 26.7316 0.773495 6.14864
vt -2.04955 0.257832
f 60/84/41 53/80/41 54/205/41 83/206/41 84/207/41 113/208/41 

vt 2.63578 0.258815
f 61/204/13 64/203/13 89/209/13 54/205/13 53/80/13 

vn 1 1.95816e-12 3.29485e-14
vt -2.04955 0.258815
f 84/207/42 85/210/42 113/208/42

vt 8.91054 0.257832
vn -5.68679e-17 -1.5843e-16 1
vt 8.91416 0.159305
vt 8.91416 3.2471e-16
vt 11.197 -2.91197e-16
vt 11.6336 1.65836e-16
vt 12.6038 -2.00916e-15
vt 13.3099 -2.65206e-16
vt 14.3444 -2.16723e-16
vt 11.6586 0.258815
vt 8.91054 0.258815
f 113/211/43 60/44/43 58/212/43 56/213/43 59/214/43 25/215/43 24/216/43 42/217/43 47/218/43 82/219/43 85/220/43 

vn 1 -7.06304e-15 3.2541e-15
vt -5.83394 0.258819
f 85/210/44 88/221/44 63/107/44 34/58/44 60/84/44 113/208/44 

vt -11.7269 -3.16084e-16
vn -5.14043e-17 1.36885e-16 1
vt 8.91054 -3.16084e-16
vt 8.91054 0.258819
vt -11.7269 0.258819
f 91/222/45 94/223/45 72/47/45 71/46/45 69/45/45 63/44/45 88/224/45 87/225/45 

vt -5.99882 0
vt -5.83394 4.82498e-16
vt -5.83394 0.0906191
vt -5.99882 0.0906191
f 95/226/13 94/227/13 72/228/13 73/229/13 

vt -2.33175 1.89436e-16
vt -2.33175 0.0906191
f 94/227/13 79/230/13 75/231/13 72/228/13 

vt -2.17757 0.0906191
vt -2.17757 -2.40637e-16
f 37/232/13 75/231/13 79/230/13 38/233/13 

vt 2.17757 0.0906191
vt 2.17757 0.0912311
f 37/234/26 75/116/26 74/115/26 36/235/26 

f 104/200/13 77/121/13 36/119/13 37/232/13 

vt 8.91191 -6.02173e-17
vt 8.91416 0
f 14/236/36 56/237/36 58/212/36 60/44/36 76/45/36 77/46/36 104/47/36 15/173/36 

vn -2.44181e-16 -1 -9.57025e-16
vt -11.197 -2.17757
vt -8.91191 -2.17757
f 14/19/46 56/79/46 59/85/46 40/238/46 39/239/46 

vt 11.197 -2.17757
vn -1.08391e-15 1 5.37559e-16
vt 11.6336 -2.17757
vt 11.6336 -2.04955
vt 11.197 -2.04955
f 40/240/47 28/241/47 25/242/47 59/243/47 

vn 9.30481e-16 -1 1.4537e-15
vt -11.197 -2.33175
f 40/238/48 28/37/48 32/41/48 81/244/48 

vn -2.17948e-16 -1 1.84751e-15
vt -8.91191 -2.33175
f 39/239/49 40/238/49 81/244/49 80/245/49 

vn 4.43496e-15 -1 2.10903e-15
f 38/193/50 39/239/50 80/245/50 79/194/50 

vn 1.87413e-18 -1 -1.40928e-15
f 14/19/51 39/239/51 38/193/51 15/20/51 

f 37/232/13 38/233/13 15/83/13 104/200/13 

f 3/196/13 104/200/13 15/83/13 2/197/13 

vt -6.12091 0
vt -6.12091 0.0906191
f 108/246/13 95/226/13 73/229/13 103/247/13 

vt -11.8637 0
vt -11.8637 0.159305
f 96/248/36 95/173/36 73/47/36 70/46/36 68/45/36 62/44/36 67/249/36 

vt -2.79258 9.01423e-17
vt 5.99882 0
vt 5.99882 0.159305
f 97/250/26 96/251/26 67/252/26 66/188/26 

vt -8.91054 0
vn 0 0 -1
vt 11.9811 0
vt 11.9811 0.0906191
f 109/253/52 110/254/52 106/255/52 105/3/52 

vt -2.92116 0
vt 6.12091 0
vt 6.12091 0.0906191
vt -2.92116 0.0906191
f 110/256/26 107/257/26 102/258/26 106/259/26 

